Coordinates
version=1
nRows=7
nColumns=40
inDegrees=yes

Units are S.I. units (second, meters, Newtons, ...)
Angles are in degrees.

endheader
time	pelvis_tilt	pelvis_list	pelvis_rotation	pelvis_tx	pelvis_ty	pelvis_tz	hip_flexion_r	hip_adduction_r	hip_rotation_r	knee_angle_r	knee_angle_r_beta	ankle_angle_r	subtalar_angle_r	mtp_angle_r	hip_flexion_l	hip_adduction_l	hip_rotation_l	knee_angle_l	knee_angle_l_beta	ankle_angle_l	subtalar_angle_l	mtp_angle_l	lumbar_extension	lumbar_bending	lumbar_rotation	arm_flex_r	arm_add_r	arm_rot_r	elbow_flex_r	pro_sup_r	wrist_flex_r	wrist_dev_r	arm_flex_l	arm_add_l	arm_rot_l	elbow_flex_l	pro_sup_l	wrist_flex_l	wrist_dev_l
     41.88000000	     -2.78525991	     -5.05344462	      0.62502468	      0.99481931	      0.92002054	      0.54214400	     15.58811641	      5.39425296	     -6.40704795	     26.26763347	     26.26763347	     15.53358704	     -4.03453989	     -2.37161714	     31.74055659	    -14.67319268	      4.45987441	     67.89099472	     67.89099472	      6.49658185	    -18.96011872	     12.93196644	    -12.24631038	      6.83699566	     -0.35307661	     15.37406326	    -20.16997463	     -3.00993573	     53.17637889	     45.28798941	      0.00000000	      0.00000000	      4.20496041	     -9.67998400	      1.42152366	     30.11492868	     45.18902175	      0.00000000	      0.00000000
     41.90071429	     -2.56299889	     -4.96665960	      1.41863052	      0.99483614	      0.91845595	      0.54344301	     15.60327982	      5.48703276	     -6.22691464	     27.25712400	     27.25712400	     16.05585307	     -5.71269342	     -2.41923270	     32.87588048	    -14.21720797	      5.07231937	     66.57051137	     66.57051137	      7.42056821	    -19.11665103	     13.44091003	    -12.33536825	      6.68934355	     -0.48666326	     17.95047616	    -19.63195784	     -3.12583940	     55.08384468	     45.24082027	      0.00000000	      0.00000000	      1.73662882	     -9.06488952	      1.79465669	     28.59165652	     45.10831081	      0.00000000	      0.00000000
     41.92142857	     -2.31155942	     -4.91025222	      2.27274011	      0.99486838	      0.91703299	      0.54462372	     15.44982085	      5.64279729	     -6.06250028	     27.99692794	     27.99692794	     16.53742801	     -7.41114212	     -2.31587959	     33.87890944	    -13.70448075	      5.71348717	     64.86780700	     64.86780700	      8.34824502	    -19.21805579	     14.16934956	    -12.48148118	      6.59299496	     -0.63241997	     20.59609448	    -19.11932709	     -3.09075196	     57.29507777	     45.17802331	      0.00000000	      0.00000000	     -0.86625056	     -8.50521844	      2.23769174	     27.19469641	     45.01176412	      0.00000000	      0.00000000
     41.94214286	     -2.08704758	     -4.82306884	      3.14801852	      0.99487720	      0.91577921	      0.54560338	     15.26121651	      5.73838555	     -6.00306131	     28.62796981	     28.62796981	     16.99421460	     -8.90484325	     -2.15296498	     34.73146592	    -13.09511259	      6.29447219	     62.73512833	     62.73512833	      9.14780107	    -19.27384998	     14.94039149	    -12.59542742	      6.49312414	     -0.68907433	     23.19400474	    -18.68635806	     -2.94308771	     59.57051516	     45.10955190	      0.00000000	      0.00000000	     -3.37474048	     -8.02764888	      2.71638704	     26.00738251	     44.90541276	      0.00000000	      0.00000000
     41.96285714	     -1.89263343	     -4.69296380	      4.00828187	      0.99481150	      0.91482553	      0.54632583	     15.03017548	      5.74533809	     -6.07846782	     29.13411867	     29.13411867	     17.41873857	    -10.10414615	     -1.99280802	     35.35875008	    -12.39713134	      6.78011864	     60.10967738	     60.10967738	      9.69365636	    -19.28843988	     15.50439888	    -12.70775153	      6.35468431	     -0.62566977	     25.83563859	    -18.37546367	     -2.83461366	     61.78378250	     45.04531407	      0.00000000	      0.00000000	     -5.65407857	     -7.61866361	      3.15030825	     25.04748443	     44.80196691	      0.00000000	      0.00000000
     41.98357143	     -1.79825417	     -4.55312707	      4.87079372	      0.99469448	      0.91417958	      0.54671309	     14.78366988	      5.70253391	     -6.24864886	     29.40605988	     29.40605988	     17.77490043	    -11.08908883	     -1.72894885	     35.82898014	    -11.61409489	      7.23410854	     57.03437446	     57.03437446	      9.97777727	    -19.26101680	     15.87726219	    -12.74544070	      6.24342510	     -0.69605811	     28.35745917	    -17.90976236	     -2.58309239	     64.24610254	     44.96843932	      0.00000000	      0.00000000	     -7.84272477	     -7.33597737	      3.65484451	     24.30796525	     44.68229041	      0.00000000	      0.00000000
     42.00428571	     -1.78436154	     -4.41633609	      5.70061506	      0.99451842	      0.91387675	      0.54681357	     14.53441628	      5.60927191	     -6.53080240	     29.53183222	     29.53183222	     18.27748277	    -11.66125707	     -0.88645128	     36.06615545	    -10.83596649	      7.58327171	     53.47312685	     53.47312685	      9.54157652	    -19.17553211	     14.86750186	    -12.73557082	      6.15887209	     -0.42612345	     30.34549471	    -18.24875581	     -1.40068361	     68.03657416	     44.83918370	      0.00000000	      0.00000000	    -10.11859480	     -7.46943880	      5.65736084	     25.17042976	     44.30514091	      0.00000000	      0.00000000
